{"title":"Operation.Dumbo.Drop.1995.XDCAMRip.x264-MenaceIISociety","uid":12466225,"size":1189237745,"categoryP":"video","categoryS":"movies","magnet":"?xt=urn:btih:56e3eb7f53596a56b52c2eba2875d2006b837796&amp;dn=Operation.Dumbo.Drop.1995.XDCAMRip.x264-MenaceIISociety&amp;tr=udp%3A%2F%2Ftracker.openbittorrent.com%3A80&amp;tr=udp%3A%2F%2Fopen.demonii.com%3A1337&amp;tr=udp%3A%2F%2Ftracker.coppersurfer.tk%3A6969&amp;tr=udp%3A%2F%2Fexodus.desync.com%3A6969","seeders":1,"leechers":5,"uploader":"TvTeam","files":4,"time":1442856049,"description":"------------------------------------------------------------------------\n\n &lt;a href=&quot; https://www.torrenting.com&quot; rel=&quot;nofollow&quot; target=&quot;_NEW&quot;&gt; https://www.torrenting.com&lt;/a&gt;\n\nSign up is OPEN - for time being. Come and have fun.\n\n------------------------------------------------------------------------[center][img]http://s17.postimg.org/htr98c733/folder.png[/img]\n\nOperation.Dumbo.Drop.1995.XDCAMRip.x264-MenaceIISociety &lt;a href=&quot;\nhttp://www.imdb.com/title/tt0114048/&quot; rel=&quot;nofollow&quot; target=&quot;_NEW&quot;&gt;\nhttp://www.imdb.com/title/tt0114048/&lt;/a&gt;\n\nSource: 1080i50.XDCAM.2.0-BiTHD [THANKS] [url]http://screenshotcomparison.com/comparison/142862/picture:2[/url]\n\nGeneral\nComplete name                            : Operation.Dumbo.Drop.1995.XDCAMRip.x264-MenaceIISociety.mp4\nFormat                                   : MPEG-4\nFormat profile                           : Base Media\nCodec ID                                 : isom\nFile size                                : 1.09 GiB\nDuration                                 : 1h 43mn\nOverall bit rate mode                    : Variable\nOverall bit rate                         : 1 510 Kbps\nEncoded date                             : UTC 2015-09-15 00:35:11\nTagged date                              : UTC 2015-09-15 00:35:11\n\nVideo\nID                                       : 1\nFormat                                   : AVC\nFormat/Info                              : Advanced Video Codec\nFormat profile                           : &lt;a class=&quot;__cf_email__&quot; href=&quot;/cdn-cgi/l/email-protection&quot; data-cfemail=&quot;ffb7969897bfb3cbd1ce&quot;&gt;[email&amp;#160;protected]&lt;/a&gt;&lt;script data-cfhash='f9e31' type=&quot;text/javascript&quot;&gt;\n/* &lt;![CDATA[ */!function(){try{var t=&quot;currentScript&quot;in document?document.currentScript:function(){for(var t=document.getElementsByTagName(&quot;script&quot;),e=t.length;e--;)if(t[e].getAttribute(&quot;data-cfhash&quot;))return t[e]}();if(t&amp;&amp;t.previousSibling){var e,r,n,i,c=t.previousSibling,a=c.getAttribute(&quot;data-cfemail&quot;);if(a){for(e=&quot;&quot;,r=parseInt(a.substr(0,2),16),n=2;a.length-n;n+=2)i=parseInt(a.substr(n,2),16)^r,e+=String.fromCharCode(i);e=document.createTextNode(e),c.parentNode.replaceChild(e,c)}t.parentNode.removeChild(t);}}catch(u){}}()/* ]]&gt; */&lt;/script&gt;\nFormat settings, CABAC                   : Yes\nFormat settings, ReFrames                : 3 frames\nCodec ID                                 : avc1\nCodec ID/Info                            : Advanced Video Coding\nDuration                                 : 1h 43mn\nBit rate mode                            : Variable\nBit rate                                 : 1 414 Kbps\nMaximum bit rate                         : 40.0 Mbps\nWidth                                    : 720 pixels\nHeight                                   : 304 pixels\nDisplay aspect ratio                     : 2.35:1\nFrame rate mode                          : Constant\nFrame rate                               : 25.000 fps\nColor space                              : YUV\nChroma subsampling                       : 4:2:0\nBit depth                                : 8 bits\nScan type                                : Progressive\nBits/(Pixel*Frame)                       : 0.258\nStream size                              : 1.02 GiB (94%)\nWriting library                          : x264 core 148 r2597 e86f3a1\n\nAudio\nID                                       : 2\nFormat                                   : AAC\nFormat/Info                              : Advanced Audio Codec\nFormat profile                           : LC\nCodec ID                                 : 40\nDuration                                 : 1h 43mn\nBit rate mode                            : Variable\nBit rate                                 : 92.3 Kbps\nMaximum bit rate                         : 107 Kbps\nChannel(s)                               : 2 channels\nChannel positions                        : Front: L R\nSampling rate                            : 44.1 KHz\nCompression mode                         : Lossy\nStream size                              : 68.4 MiB (6%)\nLanguage                                 : English\nEncoded date                             : UTC 2015-09-14 23:59:09\nTagged date                              : UTC 2015-09-15 00:35:57\n\n[img]http://s18.postimg.org/vsbk1nwqx/vlcsnap_2015_09_15_01h38m58s387.png[/img]\n[img]http://s18.postimg.org/ph6cl8vih/vlcsnap_2015_09_15_01h39m16s893.png[/img]\n[img]http://s18.postimg.org/k9puuj4ax/vlcsnap_2015_09_15_01h39m59s665.png[/img]\n[img]http://s18.postimg.org/6riyi8s5l/vlcsnap_2015_09_15_01h40m23s162.png[/img]\n[img]http://s18.postimg.org/m91v8798p/vlcsnap_2015_09_15_01h40m41s920.png[/img]\n[img]http://s18.postimg.org/j4r7besg9/vlcsnap_2015_09_15_01h42m23s012.png[/img]\n[img]http://s18.postimg.org/l0il0b6o9/vlcsnap_2015_09_15_01h43m13s496.png[/img]\n[img]http://s18.postimg.org/cwagvkk95/vlcsnap_2015_09_15_01h43m41s827.png[/img] \n \n[img]http://s17.postimg.org/r1iiyw8yn/Untitled_1.png[/img][/center]","torrent":{"xt":"urn:btih:56e3eb7f53596a56b52c2eba2875d2006b837796","amp;dn":"Operation.Dumbo.Drop.1995.XDCAMRip.x264-MenaceIISociety","amp;tr":["udp%3A%2F%2Ftracker.openbittorrent.com%3A80","udp%3A%2F%2Fopen.demonii.com%3A1337","udp%3A%2F%2Ftracker.coppersurfer.tk%3A6969","udp%3A%2F%2Fexodus.desync.com%3A6969"],"infoHash":"56e3eb7f53596a56b52c2eba2875d2006b837796","infoHashBuffer":{"type":"Buffer","data":[86,227,235,127,83,89,106,86,181,44,46,186,40,117,210,0,107,131,119,150]},"announce":[],"urlList":[]}}